<?xml version="1.0" encoding="UTF-8" standalone="no"?>
<!DOCTYPE svg PUBLIC "-//W3C//DTD SVG 1.1//EN"
 "http://www.w3.org/Graphics/SVG/1.1/DTD/svg11.dtd">
<!-- Generated by graphviz version 2.43.0 (0)
 -->
<!-- Title: %3 Pages: 1 -->
<svg width="802pt" height="128pt"
 viewBox="0.00 0.00 802.00 128.00" xmlns="http://www.w3.org/2000/svg" xmlns:xlink="http://www.w3.org/1999/xlink">
<g id="graph0" class="graph" transform="scale(1 1) rotate(0) translate(4 124)">
<title>%3</title>
<polygon fill="white" stroke="transparent" points="-4,4 -4,-124 798,-124 798,4 -4,4"/>
<!-- 139668719227504 -->
<g id="node1" class="node">
<title>139668719227504</title>
<polygon fill="none" stroke="black" points="0,-83.5 0,-119.5 178,-119.5 178,-83.5 0,-83.5"/>
<text text-anchor="middle" x="13" y="-97.8" font-family="Times,serif" font-size="14.00">b</text>
<polyline fill="none" stroke="black" points="26,-83.5 26,-119.5 "/>
<text text-anchor="middle" x="63.5" y="-97.8" font-family="Times,serif" font-size="14.00">data 4.0</text>
<polyline fill="none" stroke="black" points="101,-83.5 101,-119.5 "/>
<text text-anchor="middle" x="139.5" y="-97.8" font-family="Times,serif" font-size="14.00">grad 2.0</text>
</g>
<!-- 139668719229376* -->
<g id="node6" class="node">
<title>139668719229376*</title>
<ellipse fill="none" stroke="black" cx="241" cy="-73.5" rx="27" ry="18"/>
<text text-anchor="middle" x="241" y="-69.8" font-family="Times,serif" font-size="14.00">*</text>
</g>
<!-- 139668719227504&#45;&gt;139668719229376* -->
<g id="edge6" class="edge">
<title>139668719227504&#45;&gt;139668719229376*</title>
<path fill="none" stroke="black" d="M178.12,-85.05C187.54,-83.29 196.67,-81.59 204.9,-80.05"/>
<polygon fill="black" stroke="black" points="205.6,-83.48 214.79,-78.21 204.32,-76.6 205.6,-83.48"/>
</g>
<!-- 139668719226592 -->
<g id="node2" class="node">
<title>139668719226592</title>
<polygon fill="none" stroke="black" points="0.5,-28.5 0.5,-64.5 177.5,-64.5 177.5,-28.5 0.5,-28.5"/>
<text text-anchor="middle" x="13" y="-42.8" font-family="Times,serif" font-size="14.00">a</text>
<polyline fill="none" stroke="black" points="25.5,-28.5 25.5,-64.5 "/>
<text text-anchor="middle" x="63" y="-42.8" font-family="Times,serif" font-size="14.00">data 2.0</text>
<polyline fill="none" stroke="black" points="100.5,-28.5 100.5,-64.5 "/>
<text text-anchor="middle" x="139" y="-42.8" font-family="Times,serif" font-size="14.00">grad 4.0</text>
</g>
<!-- 139668719226592&#45;&gt;139668719229376* -->
<g id="edge3" class="edge">
<title>139668719226592&#45;&gt;139668719229376*</title>
<path fill="none" stroke="black" d="M177.69,-62.28C187.16,-63.99 196.34,-65.64 204.63,-67.13"/>
<polygon fill="black" stroke="black" points="204.13,-70.6 214.59,-68.93 205.37,-63.71 204.13,-70.6"/>
</g>
<!-- 139668719224672 -->
<g id="node3" class="node">
<title>139668719224672</title>
<polygon fill="none" stroke="black" points="608,-27.5 608,-63.5 794,-63.5 794,-27.5 608,-27.5"/>
<text text-anchor="middle" x="620.5" y="-41.8" font-family="Times,serif" font-size="14.00">e</text>
<polyline fill="none" stroke="black" points="633,-27.5 633,-63.5 "/>
<text text-anchor="middle" x="675" y="-41.8" font-family="Times,serif" font-size="14.00">data 11.0</text>
<polyline fill="none" stroke="black" points="717,-27.5 717,-63.5 "/>
<text text-anchor="middle" x="755.5" y="-41.8" font-family="Times,serif" font-size="14.00">grad 1.0</text>
</g>
<!-- 139668719224672+ -->
<g id="node4" class="node">
<title>139668719224672+</title>
<ellipse fill="none" stroke="black" cx="545" cy="-45.5" rx="27" ry="18"/>
<text text-anchor="middle" x="545" y="-41.8" font-family="Times,serif" font-size="14.00">+</text>
</g>
<!-- 139668719224672+&#45;&gt;139668719224672 -->
<g id="edge1" class="edge">
<title>139668719224672+&#45;&gt;139668719224672</title>
<path fill="none" stroke="black" d="M572.12,-45.5C579.62,-45.5 588.29,-45.5 597.5,-45.5"/>
<polygon fill="black" stroke="black" points="597.69,-49 607.69,-45.5 597.69,-42 597.69,-49"/>
</g>
<!-- 139668719229376 -->
<g id="node5" class="node">
<title>139668719229376</title>
<polygon fill="none" stroke="black" points="305,-55.5 305,-91.5 481,-91.5 481,-55.5 305,-55.5"/>
<text text-anchor="middle" x="317" y="-69.8" font-family="Times,serif" font-size="14.00">c</text>
<polyline fill="none" stroke="black" points="329,-55.5 329,-91.5 "/>
<text text-anchor="middle" x="366.5" y="-69.8" font-family="Times,serif" font-size="14.00">data 8.0</text>
<polyline fill="none" stroke="black" points="404,-55.5 404,-91.5 "/>
<text text-anchor="middle" x="442.5" y="-69.8" font-family="Times,serif" font-size="14.00">grad 1.0</text>
</g>
<!-- 139668719229376&#45;&gt;139668719224672+ -->
<g id="edge5" class="edge">
<title>139668719229376&#45;&gt;139668719224672+</title>
<path fill="none" stroke="black" d="M481.26,-57.21C490.86,-55.42 500.19,-53.68 508.6,-52.11"/>
<polygon fill="black" stroke="black" points="509.5,-55.5 518.69,-50.22 508.22,-48.62 509.5,-55.5"/>
</g>
<!-- 139668719229376*&#45;&gt;139668719229376 -->
<g id="edge2" class="edge">
<title>139668719229376*&#45;&gt;139668719229376</title>
<path fill="none" stroke="black" d="M268.13,-73.5C275.98,-73.5 285.09,-73.5 294.75,-73.5"/>
<polygon fill="black" stroke="black" points="294.98,-77 304.98,-73.5 294.98,-70 294.98,-77"/>
</g>
<!-- 139668719230960 -->
<g id="node7" class="node">
<title>139668719230960</title>
<polygon fill="none" stroke="black" points="304,-0.5 304,-36.5 482,-36.5 482,-0.5 304,-0.5"/>
<text text-anchor="middle" x="317" y="-14.8" font-family="Times,serif" font-size="14.00">d</text>
<polyline fill="none" stroke="black" points="330,-0.5 330,-36.5 "/>
<text text-anchor="middle" x="367.5" y="-14.8" font-family="Times,serif" font-size="14.00">data 3.0</text>
<polyline fill="none" stroke="black" points="405,-0.5 405,-36.5 "/>
<text text-anchor="middle" x="443.5" y="-14.8" font-family="Times,serif" font-size="14.00">grad 1.0</text>
</g>
<!-- 139668719230960&#45;&gt;139668719224672+ -->
<g id="edge4" class="edge">
<title>139668719230960&#45;&gt;139668719224672+</title>
<path fill="none" stroke="black" d="M482.12,-34.36C491.54,-36.06 500.67,-37.7 508.9,-39.18"/>
<polygon fill="black" stroke="black" points="508.33,-42.64 518.79,-40.96 509.57,-35.75 508.33,-42.64"/>
</g>
</g>
</svg>
