<?xml version="1.0" encoding="UTF-8" standalone="no"?>
<!DOCTYPE svg PUBLIC "-//W3C//DTD SVG 1.1//EN"
 "http://www.w3.org/Graphics/SVG/1.1/DTD/svg11.dtd">
<!-- Generated by graphviz version 2.43.0 (0)
 -->
<!-- Title: %3 Pages: 1 -->
<svg width="706pt" height="127pt"
 viewBox="0.00 0.00 706.00 127.00" xmlns="http://www.w3.org/2000/svg" xmlns:xlink="http://www.w3.org/1999/xlink">
<g id="graph0" class="graph" transform="scale(1 1) rotate(0) translate(4 123)">
<title>%3</title>
<polygon fill="white" stroke="transparent" points="-4,4 -4,-123 702,-123 702,4 -4,4"/>
<!-- 140105685232672 -->
<g id="node1" class="node">
<title>140105685232672</title>
<polygon fill="none" stroke="black" points="272.5,-27.5 272.5,-63.5 417.5,-63.5 417.5,-27.5 272.5,-27.5"/>
<text text-anchor="middle" x="306.5" y="-41.8" font-family="Times,serif" font-size="14.00">c = 8.0</text>
<polyline fill="none" stroke="black" points="340.5,-27.5 340.5,-63.5 "/>
<text text-anchor="middle" x="379" y="-41.8" font-family="Times,serif" font-size="14.00">grad 1.0</text>
</g>
<!-- 140105685229456+ -->
<g id="node6" class="node">
<title>140105685229456+</title>
<ellipse fill="none" stroke="black" cx="481" cy="-72.5" rx="27" ry="18"/>
<text text-anchor="middle" x="481" y="-68.8" font-family="Times,serif" font-size="14.00">+</text>
</g>
<!-- 140105685232672&#45;&gt;140105685229456+ -->
<g id="edge4" class="edge">
<title>140105685232672&#45;&gt;140105685229456+</title>
<path fill="none" stroke="black" d="M417.71,-59.95C427.17,-61.86 436.52,-63.74 444.97,-65.44"/>
<polygon fill="black" stroke="black" points="444.3,-68.88 454.79,-67.42 445.68,-62.01 444.3,-68.88"/>
</g>
<!-- 140105685232672* -->
<g id="node2" class="node">
<title>140105685232672*</title>
<ellipse fill="none" stroke="black" cx="209" cy="-45.5" rx="27" ry="18"/>
<text text-anchor="middle" x="209" y="-41.8" font-family="Times,serif" font-size="14.00">*</text>
</g>
<!-- 140105685232672*&#45;&gt;140105685232672 -->
<g id="edge1" class="edge">
<title>140105685232672*&#45;&gt;140105685232672</title>
<path fill="none" stroke="black" d="M236.15,-45.5C243.87,-45.5 252.76,-45.5 262.05,-45.5"/>
<polygon fill="black" stroke="black" points="262.26,-49 272.26,-45.5 262.26,-42 262.26,-49"/>
</g>
<!-- 140105685232768 -->
<g id="node3" class="node">
<title>140105685232768</title>
<polygon fill="none" stroke="black" points="272,-82.5 272,-118.5 418,-118.5 418,-82.5 272,-82.5"/>
<text text-anchor="middle" x="306.5" y="-96.8" font-family="Times,serif" font-size="14.00">d = 3.0</text>
<polyline fill="none" stroke="black" points="341,-82.5 341,-118.5 "/>
<text text-anchor="middle" x="379.5" y="-96.8" font-family="Times,serif" font-size="14.00">grad 1.0</text>
</g>
<!-- 140105685232768&#45;&gt;140105685229456+ -->
<g id="edge5" class="edge">
<title>140105685232768&#45;&gt;140105685229456+</title>
<path fill="none" stroke="black" d="M418.1,-85.43C427.42,-83.49 436.61,-81.57 444.94,-79.83"/>
<polygon fill="black" stroke="black" points="445.9,-83.2 454.97,-77.73 444.47,-76.35 445.9,-83.2"/>
</g>
<!-- 140105685229744 -->
<g id="node4" class="node">
<title>140105685229744</title>
<polygon fill="none" stroke="black" points="0,-55.5 0,-91.5 146,-91.5 146,-55.5 0,-55.5"/>
<text text-anchor="middle" x="34.5" y="-69.8" font-family="Times,serif" font-size="14.00">b = 4.0</text>
<polyline fill="none" stroke="black" points="69,-55.5 69,-91.5 "/>
<text text-anchor="middle" x="107.5" y="-69.8" font-family="Times,serif" font-size="14.00">grad 2.0</text>
</g>
<!-- 140105685229744&#45;&gt;140105685232672* -->
<g id="edge6" class="edge">
<title>140105685229744&#45;&gt;140105685232672*</title>
<path fill="none" stroke="black" d="M146.1,-58.43C155.42,-56.49 164.61,-54.57 172.94,-52.83"/>
<polygon fill="black" stroke="black" points="173.9,-56.2 182.97,-50.73 172.47,-49.35 173.9,-56.2"/>
</g>
<!-- 140105685229456 -->
<g id="node5" class="node">
<title>140105685229456</title>
<polygon fill="none" stroke="black" points="544,-54.5 544,-90.5 698,-90.5 698,-54.5 544,-54.5"/>
<text text-anchor="middle" x="582.5" y="-68.8" font-family="Times,serif" font-size="14.00">e = 11.0</text>
<polyline fill="none" stroke="black" points="621,-54.5 621,-90.5 "/>
<text text-anchor="middle" x="659.5" y="-68.8" font-family="Times,serif" font-size="14.00">grad 1.0</text>
</g>
<!-- 140105685229456+&#45;&gt;140105685229456 -->
<g id="edge2" class="edge">
<title>140105685229456+&#45;&gt;140105685229456</title>
<path fill="none" stroke="black" d="M508.28,-72.5C515.86,-72.5 524.58,-72.5 533.72,-72.5"/>
<polygon fill="black" stroke="black" points="533.79,-76 543.79,-72.5 533.79,-69 533.79,-76"/>
</g>
<!-- 140105685233056 -->
<g id="node7" class="node">
<title>140105685233056</title>
<polygon fill="none" stroke="black" points="0.5,-0.5 0.5,-36.5 145.5,-36.5 145.5,-0.5 0.5,-0.5"/>
<text text-anchor="middle" x="34.5" y="-14.8" font-family="Times,serif" font-size="14.00">a = 2.0</text>
<polyline fill="none" stroke="black" points="68.5,-0.5 68.5,-36.5 "/>
<text text-anchor="middle" x="107" y="-14.8" font-family="Times,serif" font-size="14.00">grad 4.0</text>
</g>
<!-- 140105685233056&#45;&gt;140105685232672* -->
<g id="edge3" class="edge">
<title>140105685233056&#45;&gt;140105685232672*</title>
<path fill="none" stroke="black" d="M145.71,-32.95C155.17,-34.86 164.52,-36.74 172.97,-38.44"/>
<polygon fill="black" stroke="black" points="172.3,-41.88 182.79,-40.42 173.68,-35.01 172.3,-41.88"/>
</g>
</g>
</svg>
